<?xml version="1.0" encoding="UTF-8" standalone="no"?>
<svg
   xmlns:dc="http://purl.org/dc/elements/1.1/"
   xmlns:cc="http://creativecommons.org/ns#"
   xmlns:rdf="http://www.w3.org/1999/02/22-rdf-syntax-ns#"
   xmlns:svg="http://www.w3.org/2000/svg"
   xmlns="http://www.w3.org/2000/svg"
   viewBox="0 0 2800 2800"
   height="2800"
   width="2800"
   xml:space="preserve"
   id="svg2"
   version="1.1"><metadata
     id="metadata8"><rdf:RDF><cc:Work
         rdf:about=""><dc:format>image/svg+xml</dc:format><dc:type
           rdf:resource="http://purl.org/dc/dcmitype/StillImage" /></cc:Work></rdf:RDF></metadata><defs
     id="defs6" /><g
     transform="matrix(1.3333333,0,0,-1.3333333,0,2800)"
     id="g10"><g
       transform="scale(0.1)"
       id="g12"><g
         transform="scale(1.28834)"
         id="g14"><path
           id="path16"
           style="fill:#ffffff;fill-opacity:1;fill-rule:evenodd;stroke:none"
           d="M 16300,0 H 0 V 16300 H 16300 V 0" /></g><path
         id="path18"
         style="fill:#b0b0ae;fill-opacity:1;fill-rule:nonzero;stroke:none"
         d="m 5533.14,3962.7 c -529.12,0 -971.03,1193.4 -885.34,1861.6 1153.6,-54.5 1648.69,-244.5 1855.17,-371.1 l 3.79,20.2 c -34.21,-183.7 -212.85,-1194.7 -815.92,-1474.7 -53.12,-24.6 -105.84,-36 -157.7,-36 m 973.62,1510.7 c 0.86,6 2.17,13.1 3.89,21.1 -1.33,-7 -2.62,-14 -3.89,-21.1 m 28.54,138.2 c -493.05,338.5 -1295.28,411.6 -1831.67,419.3 120.95,420.4 419.42,1490.9 516.05,2142.8 0.14,-0.4 0.25,-0.6 0.39,-1 -17.19,-115.9 -40.85,-245.2 -68.95,-382 274.93,-361.1 685.42,-675.3 1298.63,-802 0,0 138,-350.7 179.86,-1034.3 -36.2,-116.6 -68.55,-231 -94.31,-342.8" /><path
         id="path20"
         style="fill:#b0b0ae;fill-opacity:1;fill-rule:nonzero;stroke:none"
         d="m 6629.66,5953.6 c -0.02,0.3 -0.03,0.5 -0.05,0.8 -41.86,683.6 -179.86,1034.3 -179.86,1034.3 -613.21,126.7 -1023.7,440.9 -1298.63,802 28.1,136.8 51.76,266.1 68.95,382 282.07,-661.5 1060.6,-976.9 1608.19,-976.9 70.05,-0.1 136.18,5.1 197.15,15.3 -100.87,-428.7 -271.2,-855.6 -395.75,-1257.5" /><g
         transform="scale(1.03129)"
         id="g22"><path
           id="path24"
           style="fill:#b0b0ae;fill-opacity:1;fill-rule:nonzero;stroke:none"
           d="m 15346.9,3842.47 c -50.2,0 -101.3,11.06 -152.9,34.91 -586,271.51 -759.1,1251.83 -791.1,1429.96 l 3.6,-19.59 c 199.1,122.86 679.4,307.1 1798.6,359.94 -1.2,9.8 -2.5,18.42 -3.7,28.22 0,0 -19.6,63.9 -50.3,172.02 -518.6,-7.37 -1296.6,-77.96 -1776.3,-406 -111.8,481.54 -348.8,1015.33 -475.9,1550.39 h 0.1 c 98.7,-415.69 264,-829.64 384.7,-1219.35 40.5,663.45 173.3,1003.7 173.3,1003.7 595.7,122.86 993.8,427.52 1259.2,777.67 -26.7,132.16 -49.5,257.15 -66.2,369.24 v 0.1 c 119.3,-800.26 551.4,-2247.77 551.4,-2247.77 98.6,-641.92 -334.1,-1833.53 -854.5,-1833.44" /></g><path
         id="path26"
         style="fill:#b0b0ae;fill-opacity:1;fill-rule:nonzero;stroke:none"
         d="m 14730.6,5953.6 c -124.5,401.9 -294.9,828.8 -396.7,1257.5 61,-10.2 127.2,-15.3 197.2,-15.3 548,0 1326,314.9 1608.6,975.7 17.2,-115.6 40.7,-244.5 68.2,-380.8 -273.7,-361.1 -684.2,-675.3 -1298.6,-802 0,0 -136.9,-350.9 -178.7,-1035.1" /><path
         id="path28"
         style="fill:#b0b0ae;fill-opacity:1;fill-rule:nonzero;stroke:none"
         d="m 14531.1,7195.8 c -70,0 -136.2,5.1 -197.2,15.3 h -0.1 c -27.6,4.7 -54.2,10.3 -79.6,17.1 0,0 -4.8,8.8 -13.9,25.4 28.2,250.9 42.2,475.3 43.1,661.3 3.7,524.2 -153.5,924.5 -366.6,1225.8 0.1,0.2 0.3,0.4 0.4,0.6 -101.4,143.2 -215.6,264.1 -331,365.3 337.4,213.1 616,467.1 842.1,753.2 1.9,0 3.8,0 5.7,0 583.8,0 1542.7,-158.7 1768.8,-1162.9 81.5,-361.5 46.4,-669.3 -63.1,-925.3 v -0.1 c -282.6,-660.8 -1060.6,-975.7 -1608.6,-975.7" /><path
         id="path30"
         style="fill:#b0b0ae;fill-opacity:1;fill-rule:nonzero;stroke:none"
         d="m 6828.26,7195.8 c -547.59,0 -1326.12,315.4 -1608.19,976.9 -0.14,0.4 -0.25,0.6 -0.39,1 -108.72,255.5 -143.43,562.7 -62.24,923.2 226.14,1004.2 1184.41,1162.9 1767.85,1162.9 2.03,0 4.03,0 6.05,0 226.19,-286.2 504.87,-540.3 842.52,-753.4 -115.4,-101.2 -229.47,-222 -330.81,-365.1 0.08,-0.1 0.16,-0.2 0.25,-0.3 -213.39,-301.4 -370.99,-701.7 -367.67,-1226.1 1.66,-185.5 15.89,-409.3 44.12,-659.5 -9.77,-17.7 -14.98,-27.2 -14.98,-27.2 -25.27,-6.7 -51.78,-12.4 -79.36,-17.1 -60.97,-10.2 -127.1,-15.4 -197.15,-15.3" /><path
         id="path32"
         style="fill:#b0b0ae;fill-opacity:1;fill-rule:nonzero;stroke:none"
         d="m 11586.4,2166.4 0.1,0.1 -0.1,-0.1 m 2.5,1.1 c 0.2,0 0.2,0 0.4,0.1 -0.1,0 -0.3,-0.1 -0.4,-0.1 m 2.4,1 c 0.2,0.1 0.6,0.2 0.8,0.3 -0.2,-0.1 -0.6,-0.2 -0.8,-0.3 m 2.4,1 c 0.4,0.2 0.8,0.3 1.2,0.5 -0.4,-0.1 -0.9,-0.4 -1.2,-0.5 m 2.2,0.9 c 0.6,0.3 1.2,0.5 1.7,0.8 -0.6,-0.3 -1,-0.5 -1.7,-0.8 m 2.3,1 c 1297.3,554.3 2053.2,2298.8 2416.6,3814.8 C 13651.7,4470.1 12895.7,2725.7 11598.2,2171.4 M 10680.1,3535 c -2020.28,19 -3128.84,2263 -3467.42,3087 -4.71,26.5 -9.29,52.8 -13.75,78.9 837.39,-343.1 1900.04,-431.8 1900.04,-431.8 93.16,-1485.3 1134.63,-1607.4 1474.53,-1607.4 66.9,0 106.6,4.7 106.6,4.7 v 0 c 0,0 39.7,-4.7 106.6,-4.7 340,0 1381.4,122.1 1474.6,1607.4 0,0 1062.6,88.7 1900,431.8 -4.4,-26.1 -9,-52.5 -13.7,-78.9 -339.9,-824.1 -1447.1,-3068 -3467.5,-3087 m 0,1223.9 C 9071.1,4803.2 9194,6435.1 9194,6435.1 8042.32,6468 7175.71,6843 7175.71,6843 v 0 c -22.62,143.6 -41.2,281.6 -55.96,412.4 -28.23,250.2 -42.46,474 -44.12,659.5 -3.32,524.4 154.28,924.7 367.67,1226.1 289.09,-373.8 1091.26,-994.3 3236.8,-1017.1 2143.8,22.8 2946.1,643 3236.7,1016.8 213.1,-301.3 370.3,-701.6 366.6,-1225.8 -0.9,-186 -14.9,-410.4 -43.1,-661.3 -14.7,-130.3 -33.2,-267.7 -55.7,-410.6 v 0 c 0,0 -867.9,-375 -2018.3,-407.9 0,0 122.9,-1631.9 -1486.2,-1676.2 v 0 M 9426.09,6561.8 c -16.78,-82.7 -25.58,-168.3 -25.58,-256 0,-705.7 572.67,-1278.3 1279.59,-1278.3 707,0 1279.7,572.6 1279.7,1278.3 0,695.5 -554.3,1261 -1245.4,1279.2 v 0 c -2.9,0.1 -5.7,0.2 -8.6,0.2 -0.2,0 -0.3,0 -0.5,0 -0.4,0 -0.8,0 -1.3,0 -0.2,0 -0.4,0 -0.6,0.1 -0.4,0 -0.8,0 -1.2,0 -0.2,0 -0.5,0 -0.8,0 -0.3,0 -0.7,0 -1.1,0 -0.3,0 -0.6,0 -0.9,0 -0.3,0 -0.7,0 -1,0 -0.3,0 -0.6,0 -1,0 -0.3,0 -0.6,0.1 -0.9,0.1 -0.3,0 -0.7,0 -1,0 -0.6,0 -1.1,0 -1.7,0 -0.4,0 -0.7,0 -1.1,0 -0.3,0 -0.6,0 -0.8,0 -0.4,0 -0.8,0 -1.1,0 -0.3,0 -0.6,0 -0.9,0 -0.4,0 -0.8,0 -1.1,0 -0.3,0 -0.6,0 -0.9,0 -0.3,0 -0.7,0 -1.1,0 -0.3,0 -0.5,0 -0.8,0 -0.5,0 -0.8,0 -1.2,0.1 -0.2,0 -0.5,0 -0.8,0 -0.4,0 -0.8,0 -1.3,0 -0.2,0 -0.4,0 -0.6,0 -0.7,0 -1.3,0 -2,0 v 0 0 c -0.6,0 -1.3,0 -1.9,0 -0.2,0 -0.4,0 -0.6,0 -0.5,0 -0.9,0 -1.4,0 -0.2,0 -0.5,0 -0.7,0 -0.5,-0.1 -0.8,-0.1 -1.2,-0.1 -0.3,0 -0.6,0 -0.9,0 -0.3,0 -0.7,0 -1.1,0 -0.3,0 -0.5,0 -0.8,0 -0.4,0 -0.8,0 -1.1,0 -0.3,0 -0.6,0 -0.9,0 -0.4,0 -0.7,0 -1.1,0 -0.3,0 -0.6,0 -0.8,0 -0.4,0 -0.8,0 -1.2,0 -0.5,0 -1,0 -1.6,0 -0.3,0 -0.7,0 -1,0 -0.3,0 -0.6,-0.1 -0.9,-0.1 -0.4,0 -0.7,0 -1.1,0 -0.3,0 -0.7,0 -1,0 -0.3,0 -0.6,0 -0.9,0 -0.4,0 -0.7,0 -1.1,0 -0.2,0 -0.5,0 -0.7,0 -0.4,0 -0.8,0 -1.2,0 -0.2,-0.1 -0.5,-0.1 -0.7,-0.1 -0.4,0 -0.8,0 -1.3,0 -0.1,0 -0.3,0 -0.5,0 -2.2,0 -4.5,-0.1 -6.7,-0.1 h -0.1 c -0.6,-0.1 -1.1,-0.1 -1.7,-0.1 h -0.1 c -0.6,0 -1.2,0 -1.8,0 v 0 c -147.4,-4.1 -288.5,-33.1 -419.4,-82.9 -0.3,-0.1 -0.5,-0.2 -0.8,-0.3 -0.2,-0.1 -0.4,-0.2 -0.6,-0.3 -0.4,-0.1 -0.9,-0.3 -1.4,-0.5 h -0.1 c -402.73,-154.5 -707.86,-506.5 -795.85,-938 0.08,-0.4 0.16,-0.8 0.24,-1.2 m 4742.11,179.6 c 5.4,34.2 10.9,67.9 16.4,101.6 -5.3,-33.6 -10.8,-67.4 -16.4,-101.6" /><path
         id="path34"
         style="fill:#b0b0ae;fill-opacity:1;fill-rule:nonzero;stroke:none"
         d="m 10680.1,8123.9 c -2145.54,22.8 -2947.71,643.3 -3236.8,1017.1 -0.09,0.1 -0.17,0.2 -0.25,0.3 101.34,143.1 215.41,263.9 330.81,365.1 697.56,-440.4 1646.95,-706.2 2906.24,-719.9 1259.2,13.7 2208.5,279.6 2906.1,720.1 115.4,-101.2 229.6,-222.1 331,-365.3 -0.1,-0.2 -0.3,-0.4 -0.4,-0.6 -290.6,-373.8 -1092.9,-994 -3236.7,-1016.8" /><g
         transform="scale(1.06146)"
         id="g36"><path
           id="path38"
           style="fill:#b0b0ae;fill-opacity:1;fill-rule:nonzero;stroke:none"
           d="m 10061.7,8277.75 c -1186.37,12.9 -2080.79,263.31 -2737.96,678.22 -318.1,200.76 -580.64,440.15 -793.74,709.77 -280.6,354.96 -475.55,762.46 -598.95,1203.36 h 0.82 v 0 0 c -0.29,1 -0.57,2 -0.85,3 -215.65,771.5 -212.17,1645.7 -65.91,2521.1 24.13,-41.9 50.72,-83.6 79.9,-125 l 126.51,430.9 c 0,0 -3.88,241.8 59.36,592.3 947.56,1939.4 3930.82,2008.6 3930.82,2008.6 0,0 566.2,-13.2 1283.4,-188.4 -717.1,174.8 -1283.4,188.4 -1283.4,188.4 0,0 -646.89,-15.5 -1433.47,-226.8 43.56,-138.1 103.24,-304.1 180.67,-471.3 -0.13,-0.1 -0.31,-0.1 -0.44,-0.2 186.2,-401 473.86,-808 884.42,-849.8 h 368.82 367.7 c 411.8,41.8 699.4,448.8 885.7,849.8 -0.3,0.1 -0.5,0.2 -0.8,0.2 77.6,167.1 137.4,333.2 180.9,471.2 903.1,-243.2 1990.6,-745.7 2496.7,-1782.5 62.9,-350.2 58.8,-591.5 58.8,-591.5 l 126.6,-430.9 c 29.2,41.4 55.9,83.2 80,125.1 78.2,-465.3 115.8,-930 101.6,-1379.5 -0.1,0 -0.1,0 -0.2,0 -1.2,-40.1 -2.8,-80 -4.9,-119.8 -10,-189.7 -29.6,-376.7 -59.5,-559.2 -26,-157.6 -59.8,-312.1 -101.9,-462.7 -0.3,-1 -0.5,-2 -0.8,-3 v 0 0 0 c 0.1,0 0.2,0 0.3,0 -123.4,-440.9 -318.4,-848.4 -599,-1203.36 -213,-269.53 -475.5,-508.83 -793.4,-709.58 -657.2,-415 -1551.5,-665.51 -2737.8,-678.41 m 0,1369.06 c 0,0 10.4,-0.29 30,-0.29 298.1,0.1 2733.9,65.2 3307.4,2179.88 499.7,1845.4 -639.1,2475.2 -1368.2,2475.2 -160.8,0 -301.8,-30.6 -400.8,-85.6 0,0 -594.3,-246.6 -1199.7,-246.6 -124,0 -248.7,10.3 -368.7,35.3 -120.02,-25 -244.47,-35.3 -368.64,-35.3 -605.35,0 -1199.71,246.6 -1199.71,246.6 -99.02,55 -239.87,85.6 -400.71,85.6 -729.18,0 -1867.91,-630 -1368.21,-2475.2 573.48,-2114.78 3009.52,-2179.88 3307.37,-2179.88 19.5,0 29.9,0.29 29.9,0.29" /></g><path
         id="path40"
         style="fill:#b0b0ae;fill-opacity:1;fill-rule:nonzero;stroke:none"
         d="m 10711.9,10239.4 c -20.8,0 -31.8,0.3 -31.8,0.3 0,0 -11,-0.3 -31.7,-0.3 -316.2,0 -2901.96,69.1 -3510.69,2313.8 -530.41,1958.7 678.31,2627.4 1452.3,2627.4 170.73,0 320.24,-32.5 425.34,-90.9 0,0 630.89,-261.8 1273.45,-261.8 131.8,0 263.9,11 391.3,37.5 127.4,-26.5 259.7,-37.5 391.4,-37.5 642.6,0 1273.4,261.8 1273.4,261.8 105.1,58.4 254.7,90.9 425.4,90.9 773.9,0 1982.7,-668.5 1452.3,-2627.4 -608.7,-2244.6 -3194.2,-2313.7 -3510.7,-2313.8 m 1392.3,2125 v 0 c 0,-307.8 252.1,-558.7 558.7,-558.7 v 0 c 0.4,0 0.7,0 1,0 0.1,0 0.2,0 0.3,0 0.2,0 0.4,0 0.6,0 0.2,0 0.3,0 0.5,0 0.1,0 0.3,0 0.5,0 0.1,0 0.3,0 0.4,0 0.2,0 0.3,0 0.5,0 0.2,0 0.4,0 0.6,0 0.1,0 0.2,0 0.3,0 0.2,0 0.4,0 0.6,0 0.1,0 0.2,0 0.3,0 0.2,0 0.5,0 0.7,0 0,0.1 0.1,0.1 0.1,0.1 0.3,0 0.6,0 0.8,0 v 0 c 82.3,1 160.9,19.9 231,53.1 0.1,0.1 0.1,0.2 0.2,0.3 189.1,89.7 320.4,282.6 320.4,505.2 v 960.4 c 0,307.9 -250.9,558.7 -558.8,558.7 -306.6,0 -558.7,-250.8 -558.7,-558.7 v -960.4 0 m -3408.13,-558.7 v 0 c 307.88,0 558.73,250.9 558.73,558.7 v 960.4 0 c 0,0.3 0,0.6 0,1 0,0.1 0,0.2 0,0.3 0,0.2 0,0.4 0,0.6 0,0.1 0,0.3 0,0.4 0,0.2 0,0.4 0,0.5 0,0.2 0,0.3 -0.01,0.5 0,0.2 0,0.3 0,0.5 0,0.2 0,0.3 0,0.5 0,0.1 0,0.3 0,0.4 -0.01,0.2 -0.01,0.4 -0.01,0.6 0,0.1 0,0.2 0,0.3 -0.01,0.2 -0.01,0.4 -0.01,0.6 0,0.1 0,0.2 0,0.2 0,0.3 -0.01,0.5 -0.01,0.8 0,0 0,0 0,0.1 -0.15,11.6 -0.66,23.2 -1.51,34.6 -0.01,0.1 -0.01,0.1 -0.02,0.2 -0.01,0.2 -0.02,0.3 -0.04,0.5 -0.01,0.2 -0.02,0.4 -0.04,0.6 -0.01,0.1 -0.01,0.2 -0.02,0.3 -22.28,287.6 -263.8,515.2 -557.06,515.2 -306.6,0 -558.73,-250.8 -558.73,-558.7 v -960.4 c 0,-254 171.65,-469.2 403.91,-536.7 48.02,-14 98.61,-21.6 151.16,-22 0.08,0 0.14,0 0.22,0 0.22,0 0.44,0 0.66,0 0.13,0 0.22,0 0.35,0 0.19,0 0.38,0 0.57,0 0.17,0 0.36,0 0.53,0 0.13,0 0.25,0 0.38,0 0.32,0 0.63,0 0.95,0" /><g
         transform="scale(1.06146)"
         id="g42"><path
           id="path44"
           style="fill:#b0b0ae;fill-opacity:1;fill-rule:nonzero;stroke:none"
           d="m 8808.9,15601.9 c -77.43,167.2 -137.11,333.2 -180.67,471.3 786.58,211.3 1433.47,226.8 1433.47,226.8 0,0 566.3,-13.6 1283.4,-188.4 49.4,-12 99.5,-24.8 150.2,-38.4 -0.1,0 -0.1,0 -0.1,-0.1 -43.5,-138 -103.3,-304.1 -180.9,-471.2 -537.9,144.3 -1010.4,196.8 -1252.6,215.9 -243.43,-19.1 -714.65,-71.6 -1252.8,-215.9" /></g><g
         transform="scale(1.02528)"
         id="g46"><path
           id="path48"
           style="fill:#b0b0ae;fill-opacity:1;fill-rule:nonzero;stroke:none"
           d="m 14490.9,5318.73 -3.7,19.7 c -4.9,25.95 -17.2,71.69 -34.6,130.99 2.2,1.46 4.3,2.93 6.4,4.39 482.5,329.96 1265.1,400.96 1786.7,408.37 30.9,-108.75 50.6,-173.02 50.6,-173.02 1.3,-9.85 2.5,-18.53 3.7,-28.38 -1125.7,-53.16 -1608.8,-238.47 -1809.1,-362.05" /></g><path
         id="path50"
         style="fill:#b0b0ae;fill-opacity:1;fill-rule:nonzero;stroke:none"
         d="m 15063.8,11537.1 v 0 0 0 m 0.9,3.2 c 44.7,159.8 80.5,323.8 108.1,491.2 23.6,143.2 41.1,288.8 52.9,436.4 -25.5,-320.4 -78.2,-631.5 -161,-927.6 m 686.5,715.3 c 61.2,239.6 86.4,510.1 93.1,763.9 -153.3,-100.1 -349.5,-195.1 -602.8,-267.3 15.2,477 -24.8,970.5 -107.8,1464.3 49.2,85.5 88.8,171.9 119.6,259.1 254.5,-129.9 544.1,-324.7 544.1,-514.8 0,0 136.3,-990.6 -46.2,-1705.2" /><path
         id="path52"
         style="fill:#b0b0ae;fill-opacity:1;fill-rule:nonzero;stroke:none"
         d="m 15063.8,11537.1 v 0 0 c 0.3,1.1 0.6,2.1 0.9,3.2 82.8,296.1 135.5,607.2 161,927.6 4.2,52.2 7.6,104.5 10.3,157.2 2.2,42.2 3.9,84.5 5.2,127 0.1,0.1 0.1,0.1 0.2,0.1 0,0 0.1,0 0.1,0 253.3,72.2 449.5,167.2 602.8,267.3 -6.7,-253.8 -31.9,-524.3 -93.1,-763.9 -102.1,-400.5 -304.4,-714.4 -687.1,-718.5 -0.1,0 -0.2,0 -0.3,0" /><g
         transform="scale(1.13769)"
         id="g54"><path
           id="path56"
           style="fill:#b0b0ae;fill-opacity:1;fill-rule:nonzero;stroke:none"
           d="m 13227.3,12379.2 -118.1,402 c 0,0 3.8,225.1 -54.9,551.8 -107.2,596.3 -422.6,1531 -1349.3,2051.8 0,0 -6.4,-0.2 -18.2,-0.2 -126.4,0 -867.5,25.2 -786.9,618.3 29.3,216.3 152.9,297.1 305.6,297.1 304.7,0 725.6,-321.4 745.6,-527.6 -22.6,-122.1 1939,-1683 1456.1,-3048.7 -27.1,-76.7 -61.9,-152.7 -105.1,-227.8 -0.1,-0.1 0,0 -0.1,-0.1 -22.5,-39.1 -47.5,-78 -74.7,-116.6" /></g><path
         id="path58"
         style="fill:#b0b0ae;fill-opacity:1;fill-rule:nonzero;stroke:none"
         d="m 10786.7,4661.7 c -66.9,0 -106.6,4.7 -106.6,4.7 v 92.5 0 c 1609.1,44.3 1486.2,1676.2 1486.2,1676.2 1150.4,32.9 2018.3,407.9 2018.3,407.9 v 0 0 c -5.5,-33.7 -11,-67.4 -16.4,-101.6 -2.2,-13.3 -4.3,-26.8 -6.4,-40.3 -0.2,0 -0.3,-0.1 -0.5,-0.2 -837.4,-343.1 -1900,-431.8 -1900,-431.8 -93.2,-1485.3 -1134.6,-1607.4 -1474.6,-1607.4" /><path
         id="path60"
         style="fill:#b0b0ae;fill-opacity:1;fill-rule:nonzero;stroke:none"
         d="m 12662.9,11805.7 c 0.4,0 0.7,0 1,0 -0.3,0 -0.6,0 -1,0 m 1.3,0 c 0.2,0 0.4,0 0.6,0 -0.2,0 -0.4,0 -0.6,0 m 1.1,0 c 0.1,0 0.3,0 0.5,0 -0.2,0 -0.4,0 -0.5,0 m 0.9,0 c 0.2,0 0.3,0 0.5,0 -0.2,0 -0.3,0 -0.5,0 m 1.1,0 c 0.1,0 0.2,0 0.3,0 -0.1,0 -0.2,0 -0.3,0 m 0.9,0 c 0.1,0 0.2,0 0.3,0 -0.1,0 -0.2,0 -0.3,0 m 1,0 c 0,0.1 0.1,0.1 0.1,0.1 0,0 -0.1,0 -0.1,-0.1 m 0.9,0.1 v 0 0 m 231.2,53.4 c 34.1,72.2 53,151.9 53,236.7 v 960.3 c 0,307.9 -252.1,558.7 -558.7,558.7 -84.9,0 -166,-19 -236.9,-53.2 -34.2,-72.2 -54.5,-152 -54.5,-236.9 v -960.4 0 960.4 c 0,307.9 252.1,558.7 558.7,558.7 307.9,0 558.8,-250.8 558.8,-558.7 v -960.4 c 0,-222.6 -131.3,-415.5 -320.4,-505.2" /><path
         id="path62"
         style="fill:#b0b0ae;fill-opacity:1;fill-rule:nonzero;stroke:none"
         d="m 12662.9,11805.7 c -306.6,0 -558.7,250.9 -558.7,558.7 v 0 960.4 c 0,84.9 20.3,164.7 54.5,236.9 70.9,34.2 152,53.2 236.9,53.2 306.6,0 558.7,-250.8 558.7,-558.7 v -960.3 c 0,-84.8 -18.9,-164.5 -53,-236.7 -0.1,-0.1 -0.1,-0.2 -0.2,-0.3 -70.1,-33.2 -148.7,-52.1 -231,-53.1 v 0 c -0.2,0 -0.5,0 -0.8,0 0,0 -0.1,0 -0.1,-0.1 -0.2,0 -0.5,0 -0.7,0 -0.1,0 -0.2,0 -0.3,0 -0.2,0 -0.4,0 -0.6,0 -0.1,0 -0.2,0 -0.3,0 -0.2,0 -0.4,0 -0.6,0 -0.2,0 -0.3,0 -0.5,0 -0.1,0 -0.3,0 -0.4,0 -0.2,0 -0.4,0 -0.5,0 -0.2,0 -0.3,0 -0.5,0 -0.2,0 -0.4,0 -0.6,0 -0.1,0 -0.2,0 -0.3,0 -0.3,0 -0.6,0 -1,0 v 0" /><path
         id="path64"
         style="fill:#b0b0ae;fill-opacity:1;fill-rule:nonzero;stroke:none"
         d="m 6502.97,5453.2 c -206.48,126.6 -701.57,316.6 -1855.17,371.1 -0.28,0 -0.66,0.1 -0.94,0.1 1.27,10.1 2.54,19 5.07,29.1 v 0 0 c 0,0 19,65.9 50.68,177.4 0.33,0 0.69,0 1.02,0 536.39,-7.7 1338.62,-80.8 1831.67,-419.3 1.91,-1.3 3.77,-2.6 5.67,-3.9 -13.73,-47 -24.42,-85.8 -30.32,-113.2 -1.72,-8 -3.03,-15.1 -3.89,-21.1 v 0 l -3.79,-20.2" /><path
         id="path66"
         style="fill:#b0b0ae;fill-opacity:1;fill-rule:nonzero;stroke:none"
         d="m 6296.44,11537.1 v 0 0 0 m -0.9,3.3 c -107.1,382.9 -163.84,791 -177.73,1211.7 -251.78,72.2 -449.22,167 -602.44,266.9 -13.01,503.7 47.5,941.8 47.5,941.8 0,189.8 289.03,384.4 543.27,514.4 30.78,-87.1 70.31,-173.5 119.44,-258.9 -155.25,-929.1 -158.94,-1857.1 69.96,-2675.9 m -118.64,8.7 c -0.17,0 -0.23,0 -0.41,0.1 0.14,-0.1 0.28,-0.1 0.41,-0.1 m -0.97,0.2 c -294.71,59.3 -463.57,327.7 -556.93,665.4 93.66,-337.6 262.65,-606.2 556.93,-665.4" /><path
         id="path68"
         style="fill:#b0b0ae;fill-opacity:1;fill-rule:nonzero;stroke:none"
         d="m 6296.44,11537.1 h -1.26 c -41.52,0.4 -80.89,4.5 -118.28,12 -0.13,0 -0.27,0 -0.41,0.1 -0.17,0 -0.39,0.1 -0.56,0.1 -294.28,59.2 -463.27,327.8 -556.93,665.4 -69.19,249.4 -97.25,536.5 -104.27,804.8 0.22,-0.2 0.43,-0.3 0.64,-0.5 153.22,-99.9 350.66,-194.7 602.44,-266.9 13.89,-420.7 70.63,-828.8 177.73,-1211.7 0.3,-1.1 0.6,-2.2 0.9,-3.3 v 0 0" /><g
         transform="scale(1.13769)"
         id="g70"><path
           id="path72"
           style="fill:#b0b0ae;fill-opacity:1;fill-rule:nonzero;stroke:none"
           d="m 5546.65,12379.2 c -27.22,38.6 -52.03,77.4 -74.54,116.5 -43.19,75.1 -77.93,151 -104.99,227.6 -482.71,1365.8 1479.43,2927 1456.85,3049.1 19.29,206.2 439.86,527.6 744.85,527.6 152.82,0 276.67,-80.8 306.42,-297.1 80.5,-593.1 -661.51,-618.3 -788.08,-618.3 -11.74,0 -18.19,0.2 -18.19,0.2 -925.6,-520.7 -1241.35,-1454.7 -1348.91,-2051 -58.99,-327.1 -55.37,-552.6 -55.37,-552.6 l -118.04,-402" /></g><path
         id="path74"
         style="fill:#b0b0ae;fill-opacity:1;fill-rule:nonzero;stroke:none"
         d="m 10573.5,4661.7 c -339.9,0 -1381.37,122.1 -1474.53,1607.4 0,0 -1062.65,88.7 -1900.04,431.8 -0.15,0.1 -0.25,0.2 -0.4,0.2 -8.87,48.2 -16.47,95 -22.82,141.9 v 0 c 0,0 866.61,-375 2018.29,-407.9 0,0 -122.9,-1631.9 1486.1,-1676.2 v 0 -92.5 c 0,0 -39.7,-4.7 -106.6,-4.7" /><path
         id="path76"
         style="fill:#b0b0ae;fill-opacity:1;fill-rule:nonzero;stroke:none"
         d="m 10720.4,1992.7 c -13.3,0 -26.9,0.1 -40.3,0.4 -13.5,-0.3 -26.8,-0.4 -40.2,-0.4 -2065.87,0 -3086.31,2710.2 -3427.44,4629.9 0.08,-0.2 0.14,-0.4 0.22,-0.6 338.58,-824 1447.14,-3068 3467.42,-3087 2020.4,19 3127.6,2262.9 3467.5,3087 0.1,0.2 0.1,0.4 0.2,0.6 -36.5,-204.6 -80.6,-418.1 -133,-636.4 -363.4,-1516 -1119.3,-3260.5 -2416.6,-3814.8 -0.3,-0.1 -0.3,-0.1 -0.6,-0.2 -0.5,-0.3 -1.1,-0.5 -1.7,-0.8 -0.3,-0.1 -0.7,-0.3 -1,-0.4 -0.4,-0.2 -0.8,-0.3 -1.2,-0.5 -0.6,-0.2 -1.1,-0.4 -1.6,-0.7 -0.2,-0.1 -0.6,-0.2 -0.8,-0.3 -0.7,-0.3 -1.4,-0.6 -2,-0.9 -0.2,-0.1 -0.2,-0.1 -0.4,-0.1 -0.8,-0.4 -1.6,-0.7 -2.4,-1 l -0.1,-0.1 c -265.7,-111.8 -553.9,-173.7 -866,-173.7" /><path
         id="path78"
         style="fill:#b0b0ae;fill-opacity:1;fill-rule:nonzero;stroke:none"
         d="m 10680.1,5027.5 c -706.92,0 -1279.59,572.6 -1279.59,1278.3 0,87.7 8.8,173.3 25.58,256 119.55,-582.2 636.21,-1021.2 1254.01,-1021.2 618.3,0 1134,439.6 1253.1,1022.4 -116.9,573.3 -615.8,1006.1 -1218.8,1022 691.1,-18.2 1245.4,-583.7 1245.4,-1279.2 0,-705.7 -572.7,-1278.3 -1279.7,-1278.3 M 10221.7,7501 h 0.1 -0.1 m 1.5,0.5 c 0.2,0.1 0.4,0.2 0.6,0.3 -0.2,-0.1 -0.4,-0.2 -0.6,-0.3 m 1.4,0.6 c 130.9,49.8 272,78.8 419.4,82.9 -147.3,-4.1 -288.5,-33.1 -419.4,-82.9 m 419.4,82.9 c 0.6,0 1.2,0 1.8,0 -0.6,0 -1.2,0 -1.8,0 m 70.4,0 c -2.9,0.1 -5.7,0.2 -8.6,0.2 2.9,0 5.7,-0.1 8.6,-0.2 m -68.5,0 c 0.6,0 1.1,0 1.7,0.1 -0.6,-0.1 -1.1,-0.1 -1.7,-0.1 m 1.8,0.1 c 2.2,0 4.5,0.1 6.7,0.1 -2.2,0 -4.5,-0.1 -6.7,-0.1 m 57.6,0.1 c -0.4,0 -0.8,0 -1.3,0 0.5,0 0.9,0 1.3,0 m -50.4,0 c 0.5,0 0.9,0 1.3,0 -0.4,0 -0.8,0 -1.3,0 m 48.5,0.1 c -0.4,0 -0.8,0 -1.2,0 0.4,0 0.8,0 1.2,0 m -46.5,0 c 0.4,0 0.8,0 1.2,0 -0.4,0 -0.8,0 -1.2,0 m 44.5,0 c -0.3,0 -0.7,0 -1.1,0 0.4,0 0.8,0 1.1,0 m -42.6,0 c 0.4,0 0.7,0 1.1,0 -0.4,0 -0.7,0 -1.1,0 m 40.6,0 c -0.3,0 -0.6,0 -1,0 0.3,0 0.7,0 1,0 m -38.6,0 c 0.3,0 0.7,0 1,0 -0.3,0 -0.6,0 -1,0 m 36.6,0 c -0.3,0 -0.6,0.1 -0.9,0.1 0.3,0 0.6,-0.1 0.9,-0.1 m -34.5,0 c 0.3,0 0.6,0.1 0.9,0.1 -0.3,0 -0.6,-0.1 -0.9,-0.1 m 32.6,0.1 c -0.6,0 -1.1,0 -1.7,0 0.6,0 1.1,0 1.7,0 m -30.7,0 c 0.6,0 1.1,0 1.6,0 -0.5,0 -1,0 -1.6,0 m 27.9,0 c -0.3,0 -0.6,0 -0.8,0 0.2,0 0.5,0 0.8,0 m -25.1,0 c 0.2,0 0.5,0 0.8,0 -0.3,0 -0.6,0 -0.8,0 m 23.2,0 c -0.4,0 -0.6,0 -0.9,0 0.3,0 0.6,0 0.9,0 m -21.3,0 c 0.3,0 0.6,0 0.9,0 -0.3,0 -0.6,0 -0.9,0 m 19.3,0 c -0.3,0 -0.6,0 -0.9,0 0.3,0 0.6,0 0.9,0 m -17.3,0 c 0.3,0 0.5,0 0.8,0 -0.2,0 -0.5,0 -0.8,0 m 15.3,0 c -0.2,0 -0.6,0 -0.8,0 0.3,0 0.5,0 0.8,0 m -13.4,0 c 0.3,0 0.6,0 0.9,0 -0.3,0 -0.6,0 -0.9,0 m 11.4,0.1 c -0.2,0 -0.5,0 -0.8,0 0.3,0 0.6,0 0.8,0 m -9.3,0 c 0.2,0 0.5,0 0.7,0 -0.2,0 -0.5,0 -0.7,0 m 7.2,0 c -0.2,0 -0.4,0 -0.6,0 0.2,0 0.4,0 0.6,0 m -5.1,0 c 0.2,0 0.4,0 0.6,0 -0.2,0 -0.4,0 -0.6,0" /><path
         id="path80"
         style="fill:#b0b0ae;fill-opacity:1;fill-rule:nonzero;stroke:none"
         d="m 10680.1,5540.6 c -617.8,0 -1134.46,439 -1254.01,1021.2 -0.08,0.4 -0.16,0.8 -0.24,1.2 87.99,431.5 393.12,783.5 795.85,938 h 0.1 c 0.5,0.2 1,0.4 1.4,0.5 0.2,0.1 0.4,0.2 0.6,0.3 0.3,0.1 0.5,0.2 0.8,0.3 130.9,49.8 272.1,78.8 419.4,82.9 v 0 c 0.6,0 1.2,0 1.8,0 h 0.1 c 0.6,0 1.1,0 1.7,0.1 h 0.1 c 2.2,0 4.5,0.1 6.7,0.1 0.2,0 0.4,0 0.5,0 0.5,0 0.9,0 1.3,0 0.2,0 0.5,0 0.7,0.1 0.4,0 0.8,0 1.2,0 0.2,0 0.5,0 0.7,0 0.4,0 0.7,0 1.1,0 0.3,0 0.6,0 0.9,0 0.4,0 0.7,0 1,0 0.4,0 0.7,0 1.1,0 0.3,0 0.6,0.1 0.9,0.1 0.3,0 0.7,0 1,0 0.6,0 1.1,0 1.6,0 0.4,0 0.8,0 1.2,0 0.2,0 0.5,0 0.8,0 0.4,0 0.7,0 1.1,0 0.3,0 0.6,0 0.9,0 0.3,0 0.7,0 1.1,0 0.3,0 0.6,0 0.8,0 0.4,0 0.8,0 1.1,0 0.3,0 0.6,0 0.9,0 0.4,0 0.7,0 1.2,0.1 0.2,0 0.5,0 0.7,0 0.5,0 0.9,0 1.4,0 0.2,0 0.4,0 0.6,0 0.6,0 1.3,0 1.9,0 v 0 0 c 0.7,0 1.3,0 2,0 0.2,0 0.4,0 0.6,0 0.5,0 0.9,0 1.3,0 0.3,0 0.6,0 0.8,0 0.4,-0.1 0.7,-0.1 1.2,-0.1 0.2,0 0.6,0 0.8,0 0.4,0 0.8,0 1.1,0 0.3,0 0.6,0 0.9,0 0.3,0 0.7,0 1.1,0 0.3,0 0.5,0 0.9,0 0.3,0 0.7,0 1.1,0 0.2,0 0.5,0 0.8,0 0.4,0 0.7,0 1.1,0 0.6,0 1.1,0 1.7,0 0.3,0 0.7,0 1,0 0.3,0 0.6,-0.1 0.9,-0.1 0.4,0 0.7,0 1,0 0.4,0 0.7,0 1,0 0.3,0 0.6,0 0.9,0 0.4,0 0.8,0 1.1,0 0.3,0 0.6,0 0.8,0 0.4,0 0.8,0 1.2,0 0.2,-0.1 0.4,-0.1 0.6,-0.1 0.5,0 0.9,0 1.3,0 0.2,0 0.3,0 0.5,0 2.9,0 5.7,-0.1 8.6,-0.2 v 0 c 603,-15.9 1101.9,-448.7 1218.8,-1022 -119.1,-582.8 -634.8,-1022.4 -1253.1,-1022.4" /><path
         id="path82"
         style="fill:#b0b0ae;fill-opacity:1;fill-rule:nonzero;stroke:none"
         d="m 8696.07,11805.7 c -0.32,0 -0.63,0 -0.95,0 0.32,0 0.64,0 0.95,0 m -1.33,0 c -0.17,0 -0.36,0 -0.53,0 0.17,0 0.36,0 0.53,0 m -1.1,0 c -0.13,0 -0.22,0 -0.35,0 0.11,0 0.24,0 0.35,0 m -1.01,0 c -0.08,0 -0.14,0 -0.22,0 0.08,0 0.15,0 0.22,0 m -151.38,22 c -232.26,67.5 -403.91,282.7 -403.91,536.7 v 960.4 c 0,307.9 252.13,558.7 558.73,558.7 293.26,0 534.78,-227.6 557.06,-515.2 -5.33,68.7 -23.23,133.6 -51.54,193.4 -72.21,34.2 -152.03,53.2 -236.92,53.2 -307.87,0 -558.73,-250.8 -558.73,-558.7 v -960.3 c 0,-84.9 19.01,-164.8 53.21,-237 26.39,-12.5 53.8,-23 82.1,-31.2 m 713.55,1497.1 c 0,0.3 0,0.6 0,1 0,-0.4 0,-0.7 0,-1 v 0 m 0,1.3 c 0,0.2 0,0.4 0,0.6 0,-0.2 0,-0.4 0,-0.6 m 0,1 c 0,0.2 0,0.4 0,0.5 0,-0.1 0,-0.3 0,-0.5 m -0.01,1 c 0,0.2 0,0.3 0,0.5 0,-0.2 0,-0.3 0,-0.5 m 0,1 c 0,0.1 0,0.3 0,0.4 0,-0.1 0,-0.3 0,-0.4 m -0.01,1 c 0,0.1 0,0.2 0,0.3 0,-0.1 0,-0.2 0,-0.3 m -0.01,0.9 c 0,0.1 0,0.2 0,0.2 0,0 0,-0.1 0,-0.2 m -0.01,1 c 0,0 0,0.1 0,0.1 0,-0.1 0,-0.1 0,-0.1 m -1.51,34.7 c -0.01,0.1 -0.01,0.1 -0.02,0.2 0.01,-0.1 0.01,-0.1 0.02,-0.2 m -0.06,0.7 c -0.01,0.2 -0.03,0.4 -0.04,0.6 0.02,-0.2 0.03,-0.4 0.04,-0.6" /><path
         id="path84"
         style="fill:#b0b0ae;fill-opacity:1;fill-rule:nonzero;stroke:none"
         d="m 8696.07,11805.7 v 0 c -0.31,0 -0.63,0 -0.95,0 -0.13,0 -0.25,0 -0.38,0 -0.17,0 -0.36,0 -0.53,0 -0.19,0 -0.38,0 -0.57,0 -0.11,0 -0.24,0 -0.35,0 -0.22,0 -0.44,0 -0.66,0 -0.07,0 -0.14,0 -0.22,0 -52.55,0.4 -103.14,8 -151.16,22 -28.3,8.2 -55.71,18.7 -82.1,31.2 -34.2,72.2 -53.21,152.1 -53.21,237 v 960.3 c 0,307.9 250.86,558.7 558.73,558.7 84.89,0 164.71,-19 236.92,-53.2 28.31,-59.8 46.21,-124.7 51.54,-193.4 0.01,-0.1 0.01,-0.2 0.02,-0.3 0.01,-0.2 0.03,-0.4 0.04,-0.6 0.02,-0.2 0.03,-0.3 0.04,-0.5 0.01,-0.1 0.01,-0.1 0.02,-0.2 0.85,-11.4 1.36,-23 1.51,-34.6 0,0 0,-0.1 0,-0.1 0,-0.3 0.01,-0.5 0.01,-0.8 0,0 0,-0.1 0,-0.2 0,-0.2 0,-0.4 0.01,-0.6 0,-0.1 0,-0.2 0,-0.3 0,-0.2 0,-0.4 0.01,-0.6 0,-0.1 0,-0.3 0,-0.4 0,-0.2 0,-0.3 0,-0.5 0,-0.2 0,-0.3 0,-0.5 0.01,-0.2 0.01,-0.3 0.01,-0.5 0,-0.1 0,-0.3 0,-0.5 0,-0.1 0,-0.3 0,-0.4 0,-0.2 0,-0.4 0,-0.6 0,-0.1 0,-0.2 0,-0.3 0,-0.4 0,-0.7 0,-1 v 0 -960.4 c 0,-307.8 -250.85,-558.7 -558.73,-558.7" /><g
         transform="scale(1.03006)"
         id="g86"><path
           id="path88"
           style="fill:#b0b0ae;fill-opacity:1;fill-rule:nonzero;stroke:none"
           d="m 10747.4,15201.6 h -379 -380.03 c -423.07,43.1 -719.5,462.5 -911.37,875.8 0.13,0 0.32,0.1 0.45,0.1 554.55,148.7 1040.15,202.8 1290.95,222.5 249.6,-19.7 736.5,-73.8 1290.8,-222.4 0.3,-0.1 0.5,-0.2 0.8,-0.2 -191.9,-413.3 -488.3,-832.7 -912.6,-875.8" /></g><path
         id="path90"
         style="fill:#e4e1f3;fill-opacity:1;fill-rule:evenodd;stroke:none"
         d="m 4888.67,9026.4 c 0,0 257.19,-1184.6 1799.09,-1251.8 -133.03,-637.2 -439.64,-1277.1 -541,-1838.3 -34.21,-183.7 -212.85,-1194.8 -815.92,-1474.8 -603.08,-278.7 -1151.67,1128.9 -1038.91,1854.9 0,0 636.01,2134.8 596.74,2710" /><path
         id="path92"
         style="fill:#968fcf;fill-opacity:1;fill-rule:evenodd;stroke:none"
         d="m 4888.67,9026.4 c 0,0 257.19,-1184.6 1799.09,-1251.8 -96.3,-462.4 -283.8,-924.8 -418.1,-1358.1 -41.81,684.1 -179.91,1035.1 -179.91,1035.1 -613.21,126.7 -1023.71,440.9 -1298.64,802 67.15,326.8 108.96,610.6 97.56,772.8" /><g
         transform="scale(1.0098)"
         id="g94"><path
           id="path96"
           style="fill:#e4e1f3;fill-opacity:1;fill-rule:evenodd;stroke:none"
           d="m 15597.4,8938.77 c 0,0 -254.6,-1173.1 -1781.5,-1239.65 133,-631.01 435.3,-1264.7 536.9,-1820.45 32.7,-181.92 209.5,-1183.2 808,-1460.48 597.2,-276 1139.2,1117.94 1028.8,1836.89 0,0 -631,2114.07 -592.2,2683.69" /></g><path
         id="path98"
         style="fill:#968fcf;fill-opacity:1;fill-rule:evenodd;stroke:none"
         d="m 15750.3,9026.4 c 0,0 -257.1,-1184.6 -1799,-1251.8 97.5,-462.4 285,-924.8 419.3,-1358.1 41.8,684.1 178.7,1035.1 178.7,1035.1 614.4,126.7 1024.9,440.9 1298.6,802 -65.9,326.8 -109,610.6 -97.6,772.8" /><path
         id="path100"
         style="fill:#1e2844;fill-opacity:1;fill-rule:evenodd;stroke:none"
         d="m 13614.2,10688.7 c 0,0 1898,339.5 2228.6,-1128.9 330.7,-1468.4 -1260.6,-2051.2 -1948.6,-1868.8 0,0 -1246.7,2269.2 -1221.3,2366.7 25.3,97.6 941.3,631 941.3,631" /><path
         id="path102"
         style="fill:#1e2844;fill-opacity:1;fill-rule:evenodd;stroke:none"
         d="m 7024.77,10688.7 c 0,0 -1896.64,339.5 -2227.32,-1128.9 C 4466.77,8091.4 6058.08,7508.6 6744.77,7691 c 0,0 1247.96,2269.2 1222.62,2366.7 -25.34,97.6 -942.62,631 -942.62,631" /><path
         id="path104"
         style="fill:#e4e1f3;fill-opacity:1;fill-rule:evenodd;stroke:none"
         d="m 8191.64,10422.6 c 0,0 -1486.15,-446 -1476.01,-2044.9 2.53,-282.5 34.21,-653.7 100.09,-1071.8 302.81,-1937.2 1330.31,-4886.7 3504.38,-4850 2172.9,-36.7 3201.7,2912.8 3504.5,4850 65.8,418.1 97.5,789.3 98.8,1071.8 11.4,1598.9 -1474.8,2044.9 -1474.8,2044.9 -681.6,-568.9 -2128.5,-435.8 -2128.5,-435.8 0,0 -1446.83,-133.1 -2128.46,435.8" /><path
         id="path106"
         style="fill:#968fcf;fill-opacity:1;fill-rule:evenodd;stroke:none"
         d="m 7838.16,10265.5 c -228.05,-125.4 -524.52,-335.7 -755.11,-661.4 288.86,-373.7 1090.86,-994.5 3237.05,-1017.3 2145,22.8 2947,643.6 3237.1,1017.3 -230.6,325.7 -527,536 -755.1,661.4 l -731,-65.9 c -731.1,-306.6 -1751,-212.8 -1751,-212.8 0,0 -1021.13,-93.8 -1750.91,212.8 l -731.03,65.9" /><g
         transform="scale(1.08986)"
         id="g108"><path
           id="path110"
           style="fill:#e4e1f3;fill-opacity:1;fill-rule:evenodd;stroke:none"
           d="m 9469.23,16300 c 0,0 -3558.39,-82.5 -4050.13,-2624.9 -491.74,-2542.4 204.6,-5146.45 4050.13,-5188.29 3844.47,41.84 4541.97,2645.89 4049.07,5188.29 -491.7,2542.4 -4049.07,2624.9 -4049.07,2624.9" /></g><path
         id="path112"
         style="fill:#2b347e;fill-opacity:1;fill-rule:evenodd;stroke:none"
         d="m 8655.35,15552.5 c 0,0 916.01,-380.1 1664.75,-224.2 748.8,-155.9 1664.8,224.2 1664.8,224.2 581.6,323.1 2525.1,-145.7 1877.7,-2536.4 -648.7,-2392.1 -3542.5,-2313.5 -3542.5,-2313.5 0,0 -2893.7,-78.6 -3542.39,2313.5 -647.42,2390.7 1296.1,2859.5 1877.64,2536.4" /><g
         transform="scale(1.08986)"
         id="g114"><path
           id="path116"
           style="fill:#52b8eb;fill-opacity:1;fill-rule:evenodd;stroke:none"
           d="m 9469.23,16300 c 0,0 -630.04,-15.1 -1396.13,-220.9 144.15,-456.8 469.65,-1228.7 1036.96,-1286.9 h 359.17 358.13 c 567.24,58.2 893.94,830.1 1038.14,1286.9 -766.2,205.8 -1396.27,220.9 -1396.27,220.9" /></g><g
         transform="scale(1.0032)"
         id="g118"><path
           id="path120"
           style="fill:#272b64;fill-opacity:1;fill-rule:evenodd;stroke:none"
           d="m 14411.9,6051.26 c 17.8,-60.61 30.3,-107.36 35.4,-133.87 l 3.8,-20.24 c 204.7,126.3 698.4,315.79 1848.9,370.02 -1.2,10.17 -2.5,18.94 -3.8,29.11 0,0 -20.1,65.69 -51.7,176.73 -535.5,-7.57 -1339.9,-80.74 -1832.6,-421.75" /></g><path
         id="path122"
         style="fill:#52b8eb;fill-opacity:1;fill-rule:evenodd;stroke:none"
         d="m 14707.6,15025.5 c 269.9,-115.3 729.8,-362.4 729.8,-601.8 0,0 331.9,-2412.3 -733.6,-2423.7 248.4,885.6 224.3,1899.2 29.2,2903.9 -7.6,41.8 -16.5,82.3 -25.4,121.6" /><path
         id="path124"
         style="fill:#2a3d92;fill-opacity:1;fill-rule:evenodd;stroke:none"
         d="m 15484.3,13482.3 c -17.8,-677.8 -168.5,-1476 -780.5,-1482.3 107.7,383.9 164.7,793.1 177.4,1215 253.4,72.2 449.8,167.2 603.1,267.3" /><g
         transform="scale(1.19059)"
         id="g126"><path
           id="path128"
           style="fill:#1e2844;fill-opacity:1;fill-rule:evenodd;stroke:none"
           d="m 12224.4,12602.1 c 0,0 28.8,1717.5 -1341.8,2488 0,0 -853.5,-28.8 -769.4,590.6 84.1,619.3 975.8,75.5 1004.6,-220.3 -23.5,-126.6 2186.8,-1872.9 1219.4,-3242.5 l -112.8,384.2" /></g><path
         id="path130"
         style="fill:#272b64;fill-opacity:1;fill-rule:evenodd;stroke:none"
         d="m 13824.6,7305.9 c -7.6,-46.9 -15.2,-93.8 -22.8,-141.9 -837.5,-343.4 -1900.5,-432.1 -1900.5,-432.1 -111.5,-1777.5 -1581.2,-1602.7 -1581.2,-1602.7 v 92.5 c 1609.1,44.4 1486.2,1676.2 1486.2,1676.2 1150.4,32.9 2018.3,408 2018.3,408" /><path
         id="path132"
         style="fill:#ffffff;fill-opacity:1;fill-rule:evenodd;stroke:none"
         d="m 12302.9,14346.4 v 0 c -306.6,0 -558.7,-250.9 -558.7,-558.7 v -960.4 c 0,-307.9 252.1,-558.7 558.7,-558.7 307.9,0 558.8,250.8 558.8,558.7 v 960.4 c 0,307.8 -250.9,558.7 -558.8,558.7" /><path
         id="path134"
         style="fill:#6aceee;fill-opacity:1;fill-rule:evenodd;stroke:none"
         d="m 11798.7,14024.6 c -34.2,-72.2 -54.5,-152.1 -54.5,-236.9 v -960.4 c 0,-307.9 252.1,-558.7 558.7,-558.7 84.9,0 166,19 238.2,53.2 34.2,72.2 53.2,152 53.2,236.9 v 960.4 c 0,307.8 -252.1,558.7 -558.7,558.7 -84.9,0 -166,-19 -236.9,-53.2" /><path
         id="path136"
         style="fill:#272b64;fill-opacity:1;fill-rule:evenodd;stroke:none"
         d="m 6180.97,6070.6 c -17.74,-60.8 -30.4,-107.7 -34.21,-134.3 l -3.8,-20.3 c -206.51,126.7 -701.9,316.8 -1856.1,371.2 1.27,10.2 2.53,19 5.07,29.2 0,0 19,65.9 50.68,177.3 538.46,-7.6 1345.51,-81 1838.36,-423.1" /><path
         id="path138"
         style="fill:#52b8eb;fill-opacity:1;fill-rule:evenodd;stroke:none"
         d="m 5932.65,15025.5 c -269.87,-115.3 -729.77,-362.4 -729.77,-601.8 0,0 -333.22,-2412.3 732.3,-2423.7 h 1.27 c -248.33,885.6 -224.26,1899.2 -30.41,2903.9 7.6,41.8 16.47,82.3 26.61,121.6" /><path
         id="path140"
         style="fill:#2a3d92;fill-opacity:1;fill-rule:evenodd;stroke:none"
         d="m 5154.73,13482.3 c 17.74,-677.8 169.77,-1476 780.45,-1482.3 h 1.27 c -107.7,383.9 -164.71,793.1 -178.64,1215 -252.13,72.2 -449.78,167.2 -603.08,267.3" /><g
         transform="scale(1.19059)"
         id="g142"><path
           id="path144"
           style="fill:#1e2844;fill-opacity:1;fill-rule:evenodd;stroke:none"
           d="m 5110.64,12602.1 c 0,0 -27.67,1717.5 1341.88,2488 0,0 854.51,-28.8 770.45,590.6 -85.13,619.3 -976.89,75.5 -1004.56,-220.3 23.41,-126.6 -2186.82,-1872.9 -1220.57,-3242.5 l 112.8,384.2" /></g><path
         id="path146"
         style="fill:#272b64;fill-opacity:1;fill-rule:evenodd;stroke:none"
         d="m 6815.72,7305.9 c 6.34,-46.9 13.94,-93.8 22.81,-141.9 837.46,-343.4 1900.44,-432.1 1900.44,-432.1 111.49,-1777.5 1581.13,-1602.7 1581.13,-1602.7 v 92.5 c -1609,44.4 -1486.11,1676.2 -1486.11,1676.2 -1151.67,32.9 -2018.27,408 -2018.27,408" /><path
         id="path148"
         style="fill:#968fcf;fill-opacity:1;fill-rule:evenodd;stroke:none"
         d="m 6852.46,7085.4 c 343.35,-1932.1 1374.65,-4664.9 3467.64,-4629.5 2091.8,-35.4 3123.1,2697.4 3467.7,4629.5 -339.5,-823.5 -1446.9,-3068.6 -3467.7,-3087.6 -2020.77,19 -3129.36,2264.1 -3467.64,3087.6" /><path
         id="path150"
         style="fill:#2a3d92;fill-opacity:1;fill-rule:evenodd;stroke:none"
         d="m 10320.1,8048.3 c 707,0 1279.7,-572.7 1279.7,-1279.6 0,-705.7 -572.7,-1278.4 -1279.7,-1278.4 -706.93,0 -1279.59,572.7 -1279.59,1278.4 0,706.9 572.66,1279.6 1279.59,1279.6" /><path
         id="path152"
         style="fill:#4597d8;fill-opacity:1;fill-rule:evenodd;stroke:none"
         d="m 10320.1,8048.3 c 618.3,0 1134,-438.4 1253.1,-1022.4 -119.1,-582.8 -634.8,-1022.5 -1253.1,-1022.5 -618.24,0 -1135.16,439.7 -1254.26,1022.5 119.1,584 636.02,1022.4 1254.26,1022.4" /><path
         id="path154"
         style="fill:#ffffff;fill-opacity:1;fill-rule:evenodd;stroke:none"
         d="m 8336.07,14346.4 v 0 c 307.88,0 558.73,-250.9 558.73,-558.7 v -960.4 c 0,-307.9 -250.85,-558.7 -558.73,-558.7 -306.6,0 -558.73,250.8 -558.73,558.7 v 960.4 c 0,307.8 252.13,558.7 558.73,558.7" /><path
         id="path156"
         style="fill:#6aceee;fill-opacity:1;fill-rule:evenodd;stroke:none"
         d="m 8841.59,14024.6 c 34.21,-72.2 53.21,-152.1 53.21,-236.9 v -960.4 c 0,-307.9 -250.85,-558.7 -558.73,-558.7 -84.88,0 -164.7,19 -236.91,53.2 -34.21,72.2 -53.22,152 -53.22,236.9 v 960.4 c 0,307.8 250.86,558.7 558.73,558.7 84.89,0 164.71,-19 236.92,-53.2" /><g
         transform="scale(1.05845)"
         id="g158"><path
           id="path160"
           style="fill:#2a3d92;fill-opacity:1;fill-rule:evenodd;stroke:none"
           d="m 8493.36,16083.3 c 186.73,-402.1 475.2,-810.3 886.97,-852.2 h 369.84 368.73 c 413,41.9 701.4,450.1 888.1,852.2 -539.8,144.9 -1013.84,197.5 -1256.83,216.7 -244.14,-19.2 -716.97,-71.8 -1256.81,-216.7" /></g></g></g></svg>